<svg width="512" height="512" viewBox="0 0 512 512" xmlns="http://www.w3.org/2000/svg">
  <!-- Background gradient -->
  <defs>
    <linearGradient id="bgGradient" x1="0%" y1="0%" x2="100%" y2="100%">
      <stop offset="0%" style="stop-color:#3b82f6;stop-opacity:1" />
      <stop offset="100%" style="stop-color:#2563eb;stop-opacity:1" />
    </linearGradient>
    <linearGradient id="checkGradient" x1="0%" y1="0%" x2="100%" y2="100%">
      <stop offset="0%" style="stop-color:#ffffff;stop-opacity:1" />
      <stop offset="100%" style="stop-color:#dbeafe;stop-opacity:1" />
    </linearGradient>
  </defs>

  <!-- Background rounded rectangle -->
  <rect width="512" height="512" rx="115" fill="url(#bgGradient)"/>

  <!-- Decorative circles for "rice" theme -->
  <circle cx="128" cy="128" r="35" fill="#60a5fa" opacity="0.3"/>
  <circle cx="384" cy="128" r="35" fill="#60a5fa" opacity="0.3"/>
  <circle cx="128" cy="384" r="45" fill="#60a5fa" opacity="0.3"/>
  <circle cx="384" cy="384" r="45" fill="#60a5fa" opacity="0.3"/>

  <!-- Rice grain left (stylized) -->
  <ellipse cx="140" cy="240" rx="25" ry="65" fill="#ffffff" opacity="0.3" transform="rotate(-20 140 240)"/>

  <!-- Rice grain right (stylized) -->
  <ellipse cx="372" cy="240" rx="25" ry="65" fill="#ffffff" opacity="0.3" transform="rotate(20 372 240)"/>

  <!-- Main checkmark -->
  <path d="M 150 260 L 220 340 L 380 160"
        stroke="url(#checkGradient)"
        stroke-width="50"
        stroke-linecap="round"
        stroke-linejoin="round"
        fill="none"
        filter="drop-shadow(0 10px 20px rgba(0,0,0,0.3))"/>

  <!-- Bottom rice grains pattern -->
  <g opacity="0.2">
    <ellipse cx="200" cy="420" rx="15" ry="35" fill="#ffffff" transform="rotate(-15 200 420)"/>
    <ellipse cx="256" cy="430" rx="15" ry="35" fill="#ffffff"/>
    <ellipse cx="312" cy="420" rx="15" ry="35" fill="#ffffff" transform="rotate(15 312 420)"/>
  </g>

  <!-- Subtle grid pattern -->
  <g opacity="0.05">
    <line x1="170" y1="0" x2="170" y2="512" stroke="#ffffff" stroke-width="2"/>
    <line x1="342" y1="0" x2="342" y2="512" stroke="#ffffff" stroke-width="2"/>
    <line x1="0" y1="170" x2="512" y2="170" stroke="#ffffff" stroke-width="2"/>
    <line x1="0" y1="342" x2="512" y2="342" stroke="#ffffff" stroke-width="2"/>
  </g>
</svg>
